<svg width="1435" height="2047" viewBox="0 0 1435 2047" fill="none" xmlns="http://www.w3.org/2000/svg">
<path d="M749.872 339.914C637.716 339.914 561.629 459.974 561.629 566.294C561.629 695.286 660.559 801.09 786.627 811.911C717.238 778.59 669.319 707.481 669.319 625.379C669.319 590.34 678.078 557.362 693.365 528.335C688.212 545.339 685.464 563.374 685.464 581.924C685.464 683.434 767.734 765.708 869.241 765.708C950.996 765.708 1020.38 712.29 1044.09 638.433C1051.13 615.589 1054.91 591.371 1054.91 566.122C1054.91 429.916 944.469 319.474 808.268 319.474C804.661 319.474 801.054 319.646 797.619 319.646C829.222 330.639 853.955 356.403 863.401 388.694C834.89 358.636 794.528 339.914 749.872 339.914Z" stroke="#D3D3D3" stroke-width="0.4997" stroke-miterlimit="10"/>
<path d="M377.508 508.582C275.83 555.988 257.452 697.004 302.452 793.361C356.898 910.158 491.382 964.263 610.236 920.979C533.29 920.12 459.779 875.978 425.084 801.606C410.313 769.83 404.302 736.165 406.02 703.53C408.424 721.05 413.577 738.57 421.477 755.574C464.416 847.466 573.652 887.314 665.54 844.374C739.738 809.85 779.929 732.043 770.311 655.094C767.047 631.391 760.177 607.86 749.528 585.016C691.991 461.52 545.141 408.103 421.821 465.642C418.558 467.188 415.466 468.734 412.203 470.452C445.523 467.016 478.843 479.898 501 505.147C462.527 489.861 418.042 489.861 377.508 508.582Z" stroke="#D3D3D3" stroke-width="0.4997" stroke-miterlimit="10"/>
<path d="M119.877 342.834C38.9803 439.191 87.2433 591.371 178.617 668.148C289.57 761.07 451.878 752.31 552.354 651.831C473.519 687.385 378.023 677.423 307.432 618.166C277.375 592.917 255.219 561.485 241.479 527.476C252.299 544.137 265.868 559.595 281.841 572.993C369.092 646.163 499.11 634.826 572.278 547.572C631.361 477.322 635.312 379.075 588.938 305.39C574.339 282.889 556.133 262.106 534.663 244.072C417.527 145.825 242.853 161.111 144.609 278.252C142.033 281.344 139.457 284.435 137.052 287.527C169.342 268.29 209.189 265.542 243.883 280.828C197.338 283.405 152.166 304.359 119.877 342.834Z" stroke="#D3D3D3" stroke-width="0.4997" stroke-miterlimit="10"/>
<path d="M41.7285 11.8514C7.72113 52.2151 -0.694835 103.571 8.40815 153.725C18.5417 210.063 50.8315 265.026 93.9418 301.096C143.064 342.318 203.521 361.04 262.776 358.464C322.032 355.887 380.085 332.013 424.741 288.042C389.531 303.501 350.715 308.825 312.757 303.672C275.486 298.519 239.074 283.233 207.987 257.125C194.762 245.961 183.254 233.594 173.464 220.197C163.502 206.456 155.258 191.513 149.075 176.226L149.762 175.883C154.571 183.44 160.067 190.654 166.25 197.353C172.262 204.051 178.617 210.406 185.83 216.246C224.647 248.709 272.91 262.45 319.627 258.499C366.344 254.377 411.516 232.563 444.149 193.746C470.084 162.829 483.996 126.072 486.572 88.6283C488.633 58.3985 483.309 27.8252 470.599 -0.171783H471.458C483.996 27.8252 489.492 58.3985 487.431 88.6283C484.855 126.072 470.771 163.172 444.836 194.089C412.203 233.079 366.86 255.064 319.799 259.186C272.738 263.309 224.303 249.568 185.487 216.762C178.445 210.75 171.918 204.395 165.907 197.696C160.754 191.856 155.945 185.673 151.651 179.318C157.663 193.402 165.22 206.971 174.495 219.51C184.113 232.907 195.62 245.274 208.845 256.266C239.761 282.202 276.001 297.489 313.272 302.642C351.745 307.966 391.249 302.298 426.802 286.153L427.317 286.84C382.317 331.841 323.406 356.231 263.292 358.979C203.693 361.556 143.064 342.834 93.7701 301.439C50.6597 265.198 18.1981 210.235 8.06464 153.554C-1.38185 103.571 7.03411 52.0434 41.0415 11.3362C44.4766 7.38567 47.9117 3.43518 51.6902 -2.30968e-05H52.7208C48.9422 3.7787 45.1636 7.72919 41.7285 11.8514Z" fill="white" stroke="#D3D3D3" stroke-width="0.4997" stroke-miterlimit="10"/>
<path d="M1127.73 27.3099C1093.9 67.6736 1085.48 119.03 1094.58 169.184C1104.72 225.521 1137.01 280.485 1180.12 316.554C1229.24 357.777 1289.7 376.499 1348.95 373.922C1378.49 372.72 1407.69 366.021 1435.17 354.342V355.2C1407.69 366.88 1378.49 373.407 1348.95 374.781C1289.35 377.358 1228.72 358.636 1179.43 317.241C1136.32 281 1103.86 226.037 1093.72 169.356C1084.62 119.03 1093.04 67.5018 1127.04 26.9663C1135.8 16.6607 1145.42 7.72918 1156.07 0.171722H1157.44C1146.62 7.55742 1136.49 16.6607 1127.73 27.3099ZM1435.17 320.848C1423.15 321.364 1410.95 320.677 1398.93 319.131C1361.66 313.978 1325.25 298.691 1294.16 272.584C1280.94 261.419 1269.43 249.053 1259.64 235.655C1249.68 221.914 1241.43 206.971 1235.25 191.685L1235.94 191.341C1240.75 198.898 1246.24 206.112 1252.43 212.811C1258.44 219.51 1264.79 225.865 1272.01 231.705C1310.82 264.167 1359.08 277.908 1405.8 273.958C1415.76 273.099 1425.55 271.381 1435.34 268.977V269.836C1425.73 272.24 1415.76 273.958 1405.8 274.817C1358.91 278.939 1310.31 265.198 1271.49 232.392C1264.45 226.38 1257.92 220.025 1251.91 213.326C1246.76 207.486 1241.95 201.303 1237.65 194.948C1243.67 209.032 1251.22 222.601 1260.5 235.14C1270.12 248.537 1281.62 260.904 1294.85 271.897C1325.76 297.832 1362 313.119 1399.28 318.272C1411.3 319.99 1423.32 320.505 1435.52 319.99L1435.17 320.848Z" fill="white" stroke="#D3D3D3" stroke-width="0.4997" stroke-miterlimit="10"/>
<path d="M908.744 615.417C836.607 701.298 879.546 836.817 961.129 905.177C1059.89 988.138 1204.51 980.236 1293.99 890.749C1223.74 922.525 1138.72 913.594 1075.69 860.691C1048.9 838.191 1029.14 810.194 1016.95 779.964C1026.57 794.907 1038.59 808.476 1053.02 820.499C1130.82 885.768 1246.59 875.634 1311.85 797.827C1364.41 735.134 1368.02 647.708 1326.79 581.924C1313.74 561.828 1297.6 543.45 1278.36 527.304C1173.93 439.707 1018.5 453.276 930.901 557.706C928.668 560.454 926.435 563.202 924.202 566.122C952.885 548.946 988.61 546.542 1019.35 560.111C977.79 562.343 937.427 581.237 908.744 615.417Z" stroke="#D3D3D3" stroke-width="0.4997" stroke-miterlimit="10"/>
<path d="M791.78 258.499C719.643 344.379 762.582 479.898 844.165 548.259C942.924 631.219 1087.54 623.318 1177.03 533.831C1106.78 565.607 1021.76 556.675 958.725 503.773C931.932 481.272 912.18 453.276 899.985 423.046C909.604 437.989 921.626 451.558 936.054 463.581C1013.86 528.85 1129.62 518.716 1194.89 440.909C1247.44 378.216 1251.05 290.79 1209.83 225.006C1196.78 204.91 1180.63 186.532 1161.4 170.386C1056.97 82.7885 901.531 96.3575 813.936 200.788C811.703 203.536 809.471 206.284 807.238 209.204C835.921 192.028 871.646 189.623 902.39 203.192C860.825 205.425 820.463 224.319 791.78 258.499Z" stroke="#D3D3D3" stroke-width="0.4997" stroke-miterlimit="10"/>
<path d="M1078.27 431.118C1044.43 471.482 1036.01 522.838 1045.12 572.992C1055.25 629.33 1087.54 684.293 1130.65 720.363C1179.77 761.585 1240.23 780.307 1299.49 777.731C1347.75 775.67 1395.15 759.524 1435.17 729.81V730.84C1395.15 760.383 1347.58 776.528 1299.49 778.59C1239.89 781.166 1179.26 762.444 1129.96 721.05C1086.85 684.808 1054.39 629.845 1044.26 573.164C1035.16 522.838 1043.57 471.31 1077.58 430.775C1091.66 413.942 1108.67 400.889 1127.04 391.614C1145.77 382.167 1166.03 376.842 1186.64 375.468C1171.7 369.285 1155.73 366.708 1140.1 367.567C1123.78 368.598 1107.81 373.407 1093.38 381.995L1092.87 381.48C1093.9 380.106 1095.1 378.732 1096.13 377.357C1097.33 375.983 1098.36 374.609 1099.56 373.235C1143.36 321.02 1204.33 291.477 1267.2 285.981C1325.25 280.828 1385.19 296.287 1435.17 333.043V334.074C1385.36 297.145 1325.42 281.687 1267.37 286.84C1204.51 292.336 1143.88 321.707 1100.25 373.922C1099.05 375.296 1098.02 376.67 1096.82 378.044C1096.13 378.903 1095.44 379.762 1094.75 380.621C1108.67 372.548 1124.3 368.082 1140.1 367.052C1156.41 366.021 1173.07 368.769 1188.53 375.64L1188.36 376.327C1167.41 377.529 1146.62 383.026 1127.56 392.644C1109.01 401.232 1092.18 414.286 1078.27 431.118ZM1435.17 716.756C1407.35 724.657 1378.15 726.89 1349.47 722.939C1312.2 717.786 1275.78 702.5 1244.7 676.392C1231.47 665.228 1219.96 652.861 1210.17 639.464C1200.21 625.723 1191.97 610.78 1185.78 595.493L1186.47 595.15C1191.28 602.707 1196.78 609.921 1202.96 616.62C1208.97 623.318 1215.33 629.673 1222.54 635.513C1261.36 667.976 1309.62 681.717 1356.34 677.766C1383.99 675.362 1411.13 666.602 1435.34 652.002V652.861C1411.13 667.461 1383.99 676.049 1356.34 678.453C1309.45 682.576 1260.84 668.835 1222.02 636.029C1214.98 630.017 1208.46 623.662 1202.44 616.963C1197.29 611.123 1192.48 604.94 1188.19 598.585C1194.2 612.669 1201.76 626.238 1211.03 638.777C1220.65 652.174 1232.16 664.541 1245.38 675.533C1276.3 701.469 1312.54 716.756 1349.81 721.909C1378.49 725.859 1407.69 723.798 1435.52 715.725L1435.17 716.756Z" fill="white" stroke="#D3D3D3" stroke-width="0.4997" stroke-miterlimit="10"/>
<path d="M755.54 943.652C892.6 1002.39 1048.38 895.902 1104.2 765.88C1171.7 608.375 1106.43 427.34 958.038 347.815C1025.37 424.935 1046.66 536.751 1003.55 637.059C985.175 679.828 957.179 715.554 923.344 742.864C938.63 724.829 951.34 704.218 961.13 681.545C1014.37 557.706 957.007 414.114 833.001 360.869C733.04 317.928 620.541 346.956 552.698 424.763C532.259 448.982 514.912 476.635 501.687 507.38C430.237 673.816 507.355 866.531 673.613 937.812C677.907 939.701 682.372 941.419 686.838 943.136C654.033 913.25 637.373 868.764 642.697 824.45C661.59 876.15 700.922 920.292 755.54 943.652Z" stroke="#D3D3D3" stroke-width="0.4997" stroke-miterlimit="10"/>
<path d="M621.4 -1.56462e-05C615.904 20.9547 614.186 43.2836 615.732 65.6124C619.51 119.889 642.697 174.852 677.735 214.7C720.158 262.793 777.009 290.447 836.093 296.63C895.004 302.985 955.977 288.042 1006.82 251.285C969.717 261.247 930.386 260.732 893.802 249.911C857.562 239.262 823.898 218.651 797.104 188.249C785.597 175.367 776.15 161.283 768.593 146.512C760.692 131.397 754.853 115.595 751.074 99.2775L751.761 99.1057C755.54 107.178 759.834 115.251 764.815 122.809C769.624 130.366 775.12 137.58 781.303 144.45C814.795 182.409 860.482 203.192 907.371 206.112C954.26 209.032 1002.18 194.089 1040.14 160.596C1070.37 133.973 1089.77 99.621 1097.85 63.036C1102.48 42.253 1103.51 20.783 1100.77 -0.343536H1101.62C1104.37 20.783 1103.34 42.4248 1098.71 63.2078C1090.46 99.9645 1071.05 134.488 1040.82 161.111C1002.69 194.776 954.603 209.719 907.542 206.799C860.482 203.88 814.623 182.925 780.959 144.794C774.776 137.924 769.28 130.538 764.471 122.98C760.177 116.453 756.399 109.583 753.135 102.713C756.914 117.484 762.41 132.084 769.624 145.996C777.181 160.596 786.627 174.508 798.135 187.562C824.757 217.792 858.421 238.403 894.317 249.052C931.588 260.045 971.435 260.389 1009.05 249.74L1009.39 250.427C958.21 288.214 896.207 303.501 836.436 297.145C777.181 290.79 719.987 263.137 677.563 214.872C642.354 174.852 619.167 119.717 615.388 65.4407C613.842 43.1118 615.56 20.783 621.056 -0.171776L621.4 -1.56462e-05Z" fill="white" stroke="#D3D3D3" stroke-width="0.4997" stroke-miterlimit="10"/>
<path d="M273.94 -2.3067e-05C274.456 1.03054 274.971 2.0611 275.486 3.09166C281.326 13.569 288.196 23.7029 295.753 33.4933C303.139 42.9401 311.383 52.0434 320.314 60.6314C369.436 107.522 433.157 130.194 496.019 128.648C559.053 127.103 621.4 101.682 668.46 52.5587C669.663 51.3563 670.865 49.9822 672.067 48.6082C672.754 47.7494 673.613 46.8906 674.3 46.2035C659.873 53.2457 644.071 56.8527 628.27 56.8527C611.781 56.8527 595.465 52.9022 580.522 45.173L580.694 44.4859C601.82 44.6577 622.774 40.5354 642.525 32.1192C660.044 24.7335 676.361 14.0843 690.617 -2.3067e-05H691.647C677.22 14.4278 660.56 25.2488 642.869 32.8062C623.632 41.0507 603.022 45.173 582.411 45.173C596.839 52.3869 612.64 55.9939 628.441 55.9939C644.758 55.9939 661.075 52.2151 676.017 44.4859L676.533 45.0012C675.33 46.3753 674.128 47.7494 672.926 48.9517C671.724 50.3258 670.521 51.5281 669.319 52.9022C622.258 102.197 559.568 127.79 496.362 129.336C433.157 130.881 369.436 108.209 320.142 61.1467C311.211 52.5586 302.967 43.4554 295.41 33.8368C287.853 24.0464 281.154 13.9126 275.143 3.26342C274.456 2.0611 273.94 1.03054 273.253 -0.171783L273.94 -2.3067e-05Z" fill="white" stroke="#D3D3D3" stroke-width="0.4997" stroke-miterlimit="10"/>
<path d="M284.246 555.645C256.25 507.208 206.784 481.616 152.854 474.746C98.9227 467.875 40.5262 479.727 -5.50392 506.35C-7.39322 507.38 -9.11076 508.411 -10.8283 509.613V508.754C-9.11076 507.724 -7.56497 506.693 -5.84743 505.834C40.1827 479.211 98.751 467.188 152.854 474.059C206.956 480.929 256.593 506.693 284.761 555.301C295.753 574.367 302.28 594.634 304.684 615.246C307.089 636.029 305.371 656.983 299.704 676.736C310.696 664.884 318.597 650.628 322.89 635.513C327.528 619.883 328.387 603.051 325.123 586.733L325.81 586.39C326.841 587.936 327.7 589.482 328.558 590.856C329.417 592.402 330.448 593.947 331.306 595.493C365.486 654.579 372.527 721.737 356.383 782.884C340.066 844.03 300.562 898.822 241.479 933.002C230.658 939.186 219.666 944.51 208.33 948.976C196.823 953.614 185.143 957.221 173.464 959.969C134.991 968.385 95.1441 963.919 59.9345 948.289C32.6255 936.266 7.89292 917.372 -11.1718 892.467V891.265C7.89292 916.342 32.7973 935.407 60.278 947.602C95.3159 963.06 134.991 967.526 173.464 959.11C185.143 956.362 196.823 952.755 208.33 948.289C219.494 943.823 230.487 938.499 241.307 932.315C300.219 898.135 339.551 843.515 355.867 782.54C372.012 721.565 364.97 654.579 330.963 595.665C330.104 594.119 329.074 592.573 328.215 591.027C327.7 589.997 327.013 589.138 326.497 588.107C329.245 603.909 328.215 620.227 323.749 635.342C319.112 651.144 310.868 665.743 299.188 677.938L298.501 677.595C304.513 657.499 306.402 636.029 303.997 614.902C301.765 594.806 295.238 574.538 284.246 555.645ZM-10.8283 633.281C-8.25199 631.563 -5.67567 630.017 -2.92761 628.471C12.015 619.883 27.6447 613.184 43.4461 608.547C59.7627 603.738 76.5947 601.161 93.2548 600.646L93.4266 601.333C84.6671 603.394 76.0794 606.142 67.6634 609.406C59.4192 612.669 51.175 616.62 43.1026 621.257C21.6333 633.796 3.59906 649.941 -10.6566 668.491V667.289C3.59906 648.911 21.4615 632.937 42.7591 620.57C50.8315 615.933 58.904 611.982 67.3199 608.719C74.5336 605.799 81.919 603.394 89.4762 601.505C74.1901 602.364 58.904 604.94 43.7896 609.234C27.9882 613.872 12.3585 620.398 -2.41234 628.986C-5.16041 630.532 -7.90848 632.25 -10.6566 633.968L-10.8283 633.281Z" fill="white" stroke="#D3D3D3" stroke-width="0.4997" stroke-miterlimit="10"/>
<path d="M690.96 854.508C578.804 857.256 505.637 979.206 508.385 1085.53C511.648 1214.52 613.155 1317.75 739.567 1325.47C669.319 1293.87 619.682 1224.14 617.621 1142.03C616.762 1107 624.663 1073.85 639.262 1044.47C634.453 1061.65 632.22 1079.69 632.564 1098.41C635.14 1199.92 719.3 1279.96 820.806 1277.55C902.561 1275.49 970.576 1220.36 992.389 1145.81C998.744 1122.8 1002.01 1098.41 1001.32 1073.33C997.885 937.124 884.699 829.602 748.67 832.866C745.063 833.038 741.456 833.209 738.021 833.381C769.967 843.515 795.215 868.764 805.52 900.711C776.322 871.34 735.616 853.477 690.96 854.508Z" stroke="#D3D3D3" stroke-width="0.4997" stroke-miterlimit="10"/>
<path d="M1041 900.711C1048.04 956.19 1083.59 999.13 1130.48 1026.44C1177.54 1053.75 1235.94 1065.6 1288.67 1059.07C1346.72 1051.86 1397.56 1024.89 1435.17 985.733V986.763C1397.39 1025.75 1346.72 1052.55 1288.84 1059.76C1235.94 1066.46 1177.37 1054.61 1130.31 1027.13C1083.08 999.645 1047.35 956.534 1040.48 900.883C1037.73 879.07 1039.62 857.771 1045.46 837.847C1051.3 817.751 1061.09 799.201 1073.97 783.227C1059.2 789.926 1046.49 799.888 1036.53 812.083C1026.22 824.793 1018.84 839.908 1015.4 856.225H1014.72C1014.37 854.508 1014.2 852.618 1013.86 850.901C1013.51 849.183 1013.34 847.294 1013.17 845.576C1004.58 777.903 1024.34 713.149 1063.15 663.167C1101.97 613.185 1159.68 578.145 1227.52 569.557C1239.89 568.012 1252.08 567.324 1264.28 567.668C1276.64 568.012 1288.84 569.214 1300.69 571.275C1339.33 578.661 1374.37 598.07 1400.82 626.238C1415.25 641.525 1427.1 659.388 1435.69 679.312V681.202C1427.1 660.762 1415.08 642.384 1400.31 626.754C1374.03 598.757 1339.16 579.348 1300.69 571.962C1288.84 569.901 1276.64 568.699 1264.45 568.355C1252.43 568.012 1240.23 568.699 1227.86 570.244C1160.36 578.661 1102.83 613.7 1064.01 663.51C1025.37 713.321 1005.61 777.731 1014.2 845.233C1014.37 846.95 1014.72 848.84 1014.89 850.557C1015.06 851.588 1015.23 852.79 1015.4 853.821C1019.01 838.191 1026.22 823.591 1036.36 811.396C1046.66 798.686 1060.06 788.38 1075.52 781.681L1076.03 782.197C1062.64 798.514 1052.5 817.408 1046.49 837.847C1040.14 857.943 1038.25 879.07 1041 900.711ZM1435.17 903.803C1406.83 925.788 1372.31 940.732 1334.01 945.541C1316.83 947.774 1300 947.774 1283.51 945.713C1266.51 943.651 1250.19 939.529 1234.56 933.689L1234.73 933.002C1243.49 934.548 1252.6 935.407 1261.7 935.579C1270.63 935.751 1279.73 935.407 1288.84 934.205C1338.99 927.85 1381.93 901.742 1410.78 864.813C1420.57 852.103 1428.82 838.191 1435 823.247V825.137C1428.82 839.393 1420.74 852.962 1411.3 865.157C1382.44 902.429 1339.33 928.537 1288.84 934.892C1279.73 936.094 1270.46 936.438 1261.53 936.266C1253.63 936.094 1245.9 935.407 1238.34 934.205C1252.77 939.358 1267.88 942.964 1283.34 944.854C1299.66 946.743 1316.49 946.743 1333.66 944.682C1371.97 939.873 1406.49 924.758 1434.83 902.601L1435.17 903.803Z" fill="white" stroke="#D3D3D3" stroke-width="0.4997" stroke-miterlimit="10"/>
<path d="M479.702 48.2646C429.035 71.9676 399.149 118.858 387.47 171.932C375.791 225.006 382.489 284.263 404.817 332.356C431.955 390.411 478.843 433.008 533.633 455.68C588.423 478.353 651.113 481.272 710.197 460.318C671.724 459.459 634.281 447.951 602.163 427.168C570.56 406.729 543.938 377.357 526.935 340.773C519.549 325.142 514.397 308.997 511.305 292.68C508.042 276.019 506.839 259.015 507.698 242.354H508.385C509.587 251.285 511.477 260.045 514.225 268.805C516.801 277.393 520.064 285.809 523.843 294.225C545.312 340.086 583.27 372.892 627.239 389.037C671.38 405.011 721.532 404.324 767.391 382.854C803.974 365.85 832.142 338.368 850.348 305.562C868.898 271.897 876.798 232.907 871.989 193.917C870.272 181.894 867.695 170.043 864.26 158.191C860.825 146.683 856.531 135.175 851.207 124.011C823.726 65.2689 776.15 22.3288 720.33 -0.171783H722.391C777.524 22.6723 824.757 65.4407 852.066 123.667C857.39 135.004 861.684 146.512 865.119 158.02C868.554 169.871 871.13 181.894 872.848 193.746C877.829 232.907 869.756 272.068 851.207 305.905C833.001 338.711 804.661 366.365 767.906 383.541C721.876 405.011 671.38 405.87 627.067 389.724C582.755 373.579 544.625 340.601 523.156 294.569C519.206 286.153 515.942 277.565 513.538 268.977C511.305 261.419 509.587 253.862 508.385 246.304C507.87 261.591 509.072 277.049 511.992 292.508C515.084 308.653 520.236 324.799 527.622 340.429C544.625 377.014 571.075 406.213 602.678 426.653C635.312 447.607 673.441 459.287 712.429 459.802L712.601 460.49C652.831 482.303 589.11 479.555 533.461 456.539C478.328 433.695 431.439 391.098 404.302 332.7C381.802 284.435 375.104 225.006 386.783 171.76C398.462 118.515 428.519 71.2805 479.53 47.5776C499.454 38.3025 520.236 33.4932 541.018 32.978C561.973 32.4627 582.583 36.0697 601.82 43.4553C590.999 31.4321 577.602 22.3288 562.831 16.6607C547.545 10.6491 531.057 8.24447 514.397 9.96208L514.225 9.27504C515.771 8.41623 517.316 7.72919 519.034 6.87039C520.58 6.01159 522.297 5.32455 523.843 4.46575C527.278 2.9199 530.541 1.37406 533.977 -2.30819e-05H536.038C532.087 1.54582 528.137 3.26342 524.187 5.15279C522.469 5.83983 520.923 6.69863 519.377 7.38567C518.347 7.90095 517.316 8.41623 516.458 8.93151C532.603 7.55743 548.576 9.96208 563.347 15.8019C578.633 21.8135 592.545 31.4321 603.709 43.9706L603.194 44.6577C583.614 36.9285 562.488 32.978 541.19 33.665C520.408 34.1803 499.626 38.9896 479.702 48.2646Z" fill="white" stroke="#D3D3D3" stroke-width="0.4997" stroke-miterlimit="10"/>
<path d="M663.823 1361.37C551.667 1361.37 475.58 1481.43 475.58 1587.75C475.58 1716.74 574.51 1822.55 700.578 1833.37C631.189 1800.05 583.27 1728.94 583.27 1646.84C583.27 1611.8 592.029 1578.82 607.316 1549.79C602.163 1566.8 599.415 1584.83 599.415 1603.38C599.415 1704.89 681.685 1787.17 783.192 1787.17C864.947 1787.17 934.336 1733.75 958.038 1659.89C965.08 1637.05 968.858 1612.83 968.858 1587.58C968.858 1451.37 858.42 1340.93 722.219 1340.93C718.612 1340.93 715.006 1341.1 711.57 1341.1C743.173 1352.1 767.906 1377.86 777.352 1410.15C748.669 1380.09 708.479 1361.37 663.823 1361.37Z" stroke="#D3D3D3" stroke-width="0.4997" stroke-miterlimit="10"/>
<path d="M77.6251 1165.39C5.4883 1251.27 48.4269 1386.79 130.01 1455.15C228.769 1538.11 373.386 1530.21 462.87 1440.73C392.623 1472.5 307.604 1463.57 244.57 1410.67C217.777 1388.17 198.025 1360.17 185.83 1329.94C195.449 1344.88 207.471 1358.45 221.899 1370.48C299.703 1435.74 415.466 1425.61 480.733 1347.8C533.289 1285.11 536.896 1197.68 495.675 1131.9C482.622 1111.8 466.477 1093.43 447.24 1077.28C342.814 989.683 187.376 1003.25 99.7814 1107.68C97.5486 1110.43 95.3158 1113.18 93.083 1116.1C121.766 1098.92 157.491 1096.52 188.235 1110.09C146.67 1112.32 106.308 1131.21 77.6251 1165.39Z" stroke="#D3D3D3" stroke-width="0.4997" stroke-miterlimit="10"/>
<path d="M-10.8282 1305.04C-4.81678 1311.22 1.36637 1317.06 7.89304 1322.55C57.0148 1363.78 117.472 1382.5 176.728 1379.92C235.983 1377.35 294.036 1353.47 338.692 1309.5C303.482 1324.96 264.666 1330.28 226.708 1325.13C189.437 1319.98 153.025 1304.69 121.938 1278.58C108.713 1267.59 97.2053 1255.05 87.4153 1241.83C77.4536 1228.09 69.2093 1213.14 63.0262 1197.86L63.7132 1197.51C68.5223 1205.07 74.0185 1212.28 80.2016 1218.98C86.213 1225.68 92.5679 1232.04 99.7816 1237.88C138.598 1270.34 186.861 1284.08 233.578 1280.13C280.295 1276.01 325.467 1254.19 358.1 1215.38C384.035 1184.46 397.947 1147.7 400.523 1110.26C403.1 1071.96 393.825 1033.14 372.871 999.989C366.344 989.855 358.959 980.236 350.715 970.961C342.642 961.858 333.883 953.442 324.436 945.369C272.395 901.742 207.472 883.192 144.61 888.688C87.2436 893.669 31.5951 918.746 -10.8282 962.717V961.686C31.7669 917.887 87.2436 892.982 144.61 888.001C207.643 882.505 272.738 901.055 324.952 944.854C334.57 952.926 343.329 961.514 351.23 970.446C359.474 979.721 366.86 989.511 373.386 999.645C394.34 1032.97 403.787 1071.96 401.039 1110.43C398.462 1147.87 384.379 1184.97 358.444 1215.89C325.81 1254.88 280.467 1276.87 233.407 1280.99C186.518 1285.11 137.911 1271.37 99.0946 1238.56C92.0527 1232.55 85.526 1226.2 79.5146 1219.5C74.362 1213.66 69.5529 1207.48 65.259 1201.12C71.2704 1215.2 78.8276 1228.77 88.1023 1241.31C97.7206 1254.71 109.228 1267.08 122.453 1278.07C153.369 1304 189.609 1319.29 226.88 1324.44C265.353 1329.77 304.856 1324.1 340.409 1307.96L340.925 1308.64C295.925 1353.64 237.013 1378.03 176.899 1380.78C117.301 1383.36 56.6713 1364.64 7.37778 1323.24C1.02286 1317.92 -4.98854 1312.25 -10.8282 1306.24V1305.04ZM-10.8282 974.568C-1.7252 971.305 7.72128 969.415 17.3395 968.9C33.6562 967.87 50.3164 970.618 65.7743 977.488L65.6025 978.175C44.6485 979.378 23.8662 984.874 4.80146 994.492C-0.522925 997.241 -5.84731 1000.16 -10.8282 1003.6V1002.74C-5.84731 999.473 -0.694679 996.554 4.45795 993.977C23.1792 984.53 43.4462 979.206 64.0567 977.832C49.1141 971.648 33.1409 969.072 17.5113 969.931C7.89304 970.618 -1.55345 972.507 -10.6564 975.771L-10.8282 974.568Z" fill="white" stroke="#D3D3D3" stroke-width="0.4997" stroke-miterlimit="10"/>
<path d="M1041.51 1048.77C1007.67 1089.13 999.259 1140.49 1008.36 1190.64C1018.5 1246.98 1050.79 1301.94 1093.9 1338.01C1143.02 1379.24 1203.47 1397.96 1262.73 1395.38C1321.99 1392.8 1380.04 1368.93 1424.69 1324.96C1389.48 1340.42 1350.67 1345.74 1312.71 1340.59C1275.44 1335.44 1239.03 1320.15 1207.94 1294.04C1194.72 1282.88 1183.21 1270.51 1173.42 1257.11C1163.46 1243.37 1155.21 1228.43 1149.03 1213.14L1149.72 1212.8C1154.52 1220.36 1160.02 1227.57 1166.2 1234.27C1172.22 1240.97 1178.57 1247.32 1185.78 1253.16C1224.6 1285.63 1272.86 1299.37 1319.58 1295.42C1362.18 1291.64 1403.57 1273.09 1435.34 1240.28V1241.31C1403.57 1273.77 1362.35 1292.32 1319.75 1296.1C1272.86 1300.23 1224.26 1286.49 1185.44 1253.68C1178.4 1247.67 1171.87 1241.31 1165.86 1234.61C1160.71 1228.77 1155.9 1222.59 1151.61 1216.24C1157.62 1230.32 1165.17 1243.89 1174.45 1256.43C1184.07 1269.82 1195.57 1282.19 1208.8 1293.18C1239.71 1319.12 1275.96 1334.41 1313.23 1339.56C1351.7 1344.88 1391.2 1339.22 1426.76 1323.07L1427.27 1323.76C1382.27 1368.76 1323.36 1393.15 1263.25 1395.9C1203.65 1398.47 1143.02 1379.75 1093.72 1338.36C1050.61 1302.12 1018.15 1247.15 1008.02 1190.47C998.915 1140.15 1007.33 1088.62 1041.34 1048.08C1055.42 1031.25 1072.43 1018.2 1090.8 1008.92C1109.53 999.474 1129.79 994.149 1150.4 992.775C1135.46 986.591 1119.49 984.015 1103.86 984.874C1087.54 985.904 1071.57 990.714 1057.14 999.302L1056.62 998.786C1057.66 997.412 1058.86 996.038 1059.89 994.664C1061.09 993.29 1062.12 991.916 1063.32 990.542C1107.12 938.327 1168.09 908.784 1230.96 903.288C1293.99 897.791 1359.08 916.341 1411.3 960.14C1420.06 967.526 1428.13 975.255 1435.51 983.5V984.702C1427.96 976.286 1419.71 968.385 1410.78 960.827C1358.74 917.2 1293.82 898.65 1230.96 904.147C1168.09 909.643 1107.46 939.014 1063.84 991.229C1062.64 992.603 1061.61 993.977 1060.4 995.351C1059.72 996.21 1059.03 997.069 1058.34 997.928C1072.25 989.855 1087.88 985.389 1103.69 984.359C1120 983.328 1136.66 986.076 1152.12 992.947L1151.95 993.634C1130.99 994.836 1110.21 1000.33 1091.15 1009.95C1072.43 1018.88 1055.59 1031.94 1041.51 1048.77Z" fill="white" stroke="#D3D3D3" stroke-width="0.4997" stroke-miterlimit="10"/>
<path d="M822.524 1636.88C750.387 1722.76 793.326 1858.28 874.909 1926.64C973.668 2009.6 1118.28 2001.7 1207.77 1912.21C1137.52 1943.98 1052.5 1935.05 989.469 1882.15C962.675 1859.65 942.924 1831.65 930.729 1801.42C940.347 1816.37 952.37 1829.93 966.798 1841.96C1044.6 1907.23 1160.36 1897.09 1225.63 1819.29C1278.19 1756.59 1281.8 1669.17 1240.57 1603.38C1227.52 1583.29 1211.38 1564.91 1192.14 1548.76C1087.71 1461.17 932.275 1474.73 844.68 1579.16C842.447 1581.91 840.215 1584.66 837.982 1587.58C866.665 1570.4 902.39 1568 933.134 1581.57C891.569 1583.8 851.207 1602.52 822.524 1636.88Z" stroke="#D3D3D3" stroke-width="0.4997" stroke-miterlimit="10"/>
<path d="M950.137 1040.01C795.558 984.874 631.533 1113.01 579.32 1259.69C515.942 1437.46 600.445 1631.9 769.108 1708.84C689.758 1628.8 658.67 1507.37 698.861 1394.18C716.036 1345.91 744.376 1304.69 779.757 1272.23C764.299 1293.01 751.589 1316.54 742.486 1342.31C692.677 1482.29 765.673 1636.02 905.653 1685.83C1018.5 1726.02 1140.27 1686.34 1209.31 1596.17C1230.1 1568.17 1247.27 1536.57 1259.64 1501.87C1326.45 1313.97 1228.38 1107.51 1040.65 1040.7C1035.67 1038.98 1030.69 1037.26 1025.88 1035.72C1064.01 1066.29 1085.48 1114.04 1082.73 1163.16C1058 1107.68 1011.63 1061.82 950.137 1040.01Z" stroke="#D3D3D3" stroke-width="0.4997" stroke-miterlimit="10"/>
<path d="M992.045 1452.41C958.21 1492.77 949.794 1544.13 958.897 1594.28C969.03 1650.62 1001.32 1705.58 1044.43 1741.65C1093.55 1782.87 1154.01 1801.59 1213.26 1799.02C1272.52 1796.44 1330.57 1772.57 1375.23 1728.6C1340.02 1744.05 1301.2 1749.38 1263.25 1744.23C1225.97 1739.07 1189.56 1723.79 1158.48 1697.68C1145.25 1686.51 1133.74 1674.15 1123.95 1660.75C1113.99 1647.01 1105.75 1632.07 1099.56 1616.78L1100.25 1616.44C1105.06 1623.99 1110.56 1631.21 1116.74 1637.91C1122.75 1644.61 1129.11 1650.96 1136.32 1656.8C1175.14 1689.26 1223.4 1703 1270.12 1699.05C1316.83 1694.93 1362 1673.12 1394.64 1634.3C1416.97 1607.68 1430.36 1576.76 1435.34 1544.81V1549.45C1429.85 1579.85 1416.62 1609.39 1395.15 1634.82C1362.52 1673.8 1317.18 1695.79 1270.12 1699.91C1223.23 1704.03 1174.62 1690.29 1135.8 1657.49C1128.76 1651.48 1122.24 1645.12 1116.22 1638.42C1111.07 1632.58 1106.26 1626.4 1101.97 1620.04C1107.98 1634.13 1115.54 1647.7 1124.81 1660.24C1134.43 1673.63 1145.94 1686 1159.16 1696.99C1190.08 1722.93 1226.32 1738.21 1263.59 1743.37C1302.06 1748.69 1341.57 1743.02 1377.12 1726.88L1377.63 1727.57C1332.63 1772.57 1273.72 1796.96 1213.61 1799.71C1154.01 1802.28 1093.38 1783.56 1044.09 1742.17C1000.98 1705.92 968.515 1650.96 958.382 1594.28C949.279 1543.95 957.694 1492.43 991.702 1451.89C1005.79 1435.06 1022.79 1422 1041.17 1412.73C1059.89 1403.28 1080.16 1397.96 1100.77 1396.58C1085.82 1390.4 1069.85 1387.82 1054.22 1388.68C1037.9 1389.71 1021.93 1394.52 1007.5 1403.11L1006.99 1402.6C1008.02 1401.22 1009.22 1399.85 1010.25 1398.47C1011.45 1397.1 1012.48 1395.72 1013.69 1394.35C1057.48 1342.14 1118.46 1312.59 1181.32 1307.1C1244.35 1301.6 1309.45 1320.15 1361.66 1363.95C1371.28 1372.02 1380.04 1380.61 1387.94 1389.54C1396.18 1398.82 1403.57 1408.61 1410.1 1418.74C1422.81 1438.84 1431.22 1460.99 1435.34 1483.84V1488.48C1431.56 1464.09 1422.98 1440.38 1409.41 1419.08C1402.88 1408.95 1395.5 1399.33 1387.25 1390.06C1379.18 1380.95 1370.42 1372.54 1360.97 1364.46C1308.93 1320.84 1244.01 1302.29 1181.15 1307.78C1118.28 1313.28 1057.66 1342.65 1014.03 1394.87C1012.83 1396.24 1011.8 1397.61 1010.59 1398.99C1009.91 1399.85 1009.22 1400.71 1008.53 1401.56C1022.45 1393.49 1038.08 1389.03 1053.88 1388C1070.19 1386.96 1086.85 1389.71 1102.31 1396.58L1102.14 1397.27C1081.19 1398.47 1060.4 1403.97 1041.34 1413.59C1022.96 1422.69 1006.13 1435.74 992.045 1452.41Z" fill="white" stroke="#D3D3D3" stroke-width="0.4997" stroke-miterlimit="10"/>
<path d="M356.211 1931.96C459.263 1976.27 576.572 1895.89 618.48 1798.16C669.319 1679.64 620.197 1543.44 508.557 1483.67C559.224 1541.72 575.198 1625.88 542.736 1701.29C528.996 1733.58 507.87 1760.37 482.279 1780.98C493.786 1767.41 503.404 1751.96 510.79 1734.78C550.809 1641.51 507.698 1533.48 414.436 1493.46C339.207 1461.17 254.532 1482.98 203.521 1541.55C188.063 1559.76 175.01 1580.54 165.22 1603.73C111.461 1728.94 169.342 1873.91 294.551 1927.67C297.814 1929.04 301.078 1930.41 304.513 1931.62C279.78 1909.12 267.242 1875.62 271.364 1842.3C285.62 1881.12 315.162 1914.27 356.211 1931.96Z" stroke="#D3D3D3" stroke-width="0.4997" stroke-miterlimit="10"/>
<path d="M657.296 1649.41C790.062 1596.34 823.554 1418.23 773.23 1292.33C712.257 1139.63 544.969 1061.14 390.562 1107.85C488.462 1114.55 578.804 1175.87 617.621 1273.09C634.281 1314.65 639.434 1357.77 634.968 1399.33C633.079 1376.83 627.754 1354.16 618.995 1332C571.075 1211.94 434.702 1153.37 314.646 1201.46C217.777 1240.11 161.098 1336.3 167.796 1434.89C170.372 1465.29 177.414 1495.69 189.265 1525.58C253.673 1686.86 436.763 1765.35 597.869 1700.94C602.163 1699.23 606.285 1697.51 610.407 1695.62C567.812 1697.68 526.419 1678.79 499.969 1644.95C547.889 1667.45 604.396 1670.54 657.296 1649.41Z" stroke="#D3D3D3" stroke-width="0.4997" stroke-miterlimit="10"/>
<path d="M608.174 1018.02C685.635 936.953 651.456 798.857 574.51 725.516C481.248 636.544 336.287 634.998 241.307 718.645C313.444 691.507 397.775 705.763 457.202 762.616C482.622 786.834 500.484 815.862 510.79 846.95C502.03 831.492 491.038 817.064 477.469 804.182C404.13 734.104 287.852 736.852 217.777 810.194C161.269 869.279 152.166 956.362 189.094 1024.55C200.773 1045.33 215.716 1064.91 233.922 1082.26C332.509 1176.39 488.633 1172.61 582.583 1074.19C584.987 1071.61 587.392 1069.04 589.797 1066.29C560.083 1081.58 524.358 1081.58 494.473 1066.12C535.866 1066.46 577.43 1050.31 608.174 1018.02Z" stroke="#D3D3D3" stroke-width="0.4997" stroke-miterlimit="10"/>
<path d="M198.197 1577.1C170.201 1528.67 120.736 1503.07 66.8046 1496.2C41.385 1492.94 14.9348 1493.8 -10.8283 1498.61V1497.75C14.9348 1493.11 41.385 1492.08 66.8046 1495.35C120.907 1502.22 170.544 1527.98 198.712 1576.59C209.704 1595.65 216.231 1615.92 218.635 1636.53C221.04 1657.32 219.323 1678.27 213.655 1698.02C224.647 1686.17 232.548 1671.92 236.841 1656.8C241.479 1641.17 242.338 1624.34 239.074 1608.02L239.761 1607.68C240.792 1609.22 241.651 1610.77 242.509 1612.14C243.368 1613.69 244.399 1615.23 245.257 1616.78C279.437 1675.87 286.478 1743.02 270.334 1804.17C254.017 1865.32 214.513 1920.11 155.43 1954.29C144.609 1960.47 133.617 1965.8 122.281 1970.26C110.774 1974.9 99.0945 1978.51 87.4152 1981.26C54.2666 1988.47 20.2592 1986.24 -11.1718 1975.42V1974.56C20.0875 1985.38 54.0948 1987.61 87.2434 1980.4C98.9227 1977.65 110.602 1974.04 122.11 1969.58C133.274 1965.11 144.266 1959.79 155.086 1953.6C213.998 1919.42 253.33 1864.8 269.647 1803.83C285.791 1742.85 278.75 1675.87 244.742 1616.95C243.883 1615.41 242.853 1613.86 241.994 1612.31C241.479 1611.28 240.792 1610.43 240.277 1609.39C243.025 1625.2 241.994 1641.51 237.528 1656.63C232.891 1672.43 224.647 1687.03 212.968 1699.23L212.281 1698.88C218.292 1678.79 220.181 1657.32 217.777 1636.19C215.544 1616.26 209.017 1596 198.197 1577.1ZM-10.8283 1623.65C-4.8169 1622.96 1.02274 1622.45 7.03415 1622.28L7.2059 1622.96C1.1945 1624.34 -4.8169 1626.06 -10.8283 1628.12V1627.26C-6.19094 1625.71 -1.55357 1624.34 3.0838 1623.14C-1.55357 1623.48 -6.19094 1623.82 -10.8283 1624.34V1623.65Z" fill="white" stroke="#D3D3D3" stroke-width="0.4997" stroke-miterlimit="10"/>
<path d="M604.739 1875.97C492.584 1878.71 419.416 2000.66 422.164 2106.98C425.428 2235.98 526.934 2339.2 653.346 2346.93C583.098 2315.33 533.461 2245.59 531.4 2163.49C530.541 2128.45 538.442 2095.3 553.041 2065.93C548.232 2083.11 545.999 2101.14 546.343 2119.87C548.919 2221.38 633.079 2301.42 734.586 2299.01C816.341 2296.95 884.355 2241.82 906.168 2167.27C912.523 2144.26 915.786 2119.87 915.099 2094.79C911.664 1958.58 798.478 1851.06 662.449 1854.32C658.842 1854.5 655.235 1854.67 651.8 1854.84C683.746 1864.97 708.994 1890.22 719.299 1922.17C690.101 1892.8 649.395 1874.94 604.739 1875.97Z" stroke="#D3D3D3" stroke-width="0.4997" stroke-miterlimit="10"/>
<path d="M833.859 1970.26C844.68 2056.83 900.157 2123.65 973.324 2166.24C1046.49 2208.84 1137.52 2227.22 1219.62 2216.91C1303.61 2206.26 1377.98 2169.33 1435.17 2115.23V2116.26C1377.98 2170.19 1303.78 2207.12 1219.79 2217.6C1137.52 2227.9 1046.32 2209.53 972.981 2166.76C899.641 2123.99 843.993 2057 833.172 1970.26C828.879 1936.43 831.798 1903.28 840.901 1872.36C850.004 1840.76 865.462 1811.73 885.901 1786.65C862.542 1797.13 842.447 1812.76 826.646 1832C810.501 1851.75 798.993 1875.28 793.669 1900.7H792.982C792.467 1897.95 792.123 1895.2 791.608 1892.46C791.264 1889.71 790.749 1886.96 790.406 1884.21C777.181 1778.92 807.925 1678.1 868.21 1600.46C928.496 1522.83 1018.5 1468.04 1123.78 1454.81C1143.02 1452.41 1162.08 1451.37 1180.98 1451.89C1200.21 1452.41 1219.1 1454.12 1237.65 1457.39C1297.94 1468.72 1352.21 1499.12 1393.26 1542.92C1409.41 1560.1 1423.49 1579.34 1435 1600.29V1601.84C1423.32 1580.54 1409.06 1560.96 1392.58 1543.44C1351.53 1499.81 1297.42 1469.41 1237.31 1458.07C1218.76 1454.81 1199.87 1452.92 1180.8 1452.58C1162.08 1452.23 1143.02 1453.09 1123.78 1455.5C1018.67 1468.72 928.84 1523.34 868.726 1600.81C808.44 1678.27 777.868 1778.92 791.093 1884.04C791.436 1886.79 791.78 1889.54 792.295 1892.28C792.638 1894.34 792.982 1896.41 793.325 1898.47C798.822 1873.56 810.157 1850.72 825.959 1831.31C842.104 1811.56 862.886 1795.58 886.932 1785.11L887.447 1785.62C866.493 1810.87 850.863 1840.41 841.588 1872.36C832.485 1903.28 829.566 1936.43 833.859 1970.26ZM1435.17 1983.83C1393.44 2013.03 1344.31 2032.96 1290.21 2039.65C1263.59 2043.09 1237.14 2042.92 1211.55 2040C1185.27 2036.91 1159.68 2030.55 1135.46 2021.28L1135.63 2020.59C1149.37 2022.99 1163.46 2024.37 1177.54 2024.71C1191.45 2025.05 1205.71 2024.37 1219.96 2022.48C1298.28 2012.69 1365.1 1971.98 1409.92 1914.27C1419.37 1902.25 1427.61 1889.36 1435 1875.97V1877.51C1427.79 1890.57 1419.54 1902.93 1410.44 1914.61C1365.44 1972.5 1298.46 2013.2 1219.96 2023.17C1205.71 2024.88 1191.45 2025.74 1177.54 2025.4C1164.66 2025.05 1151.78 2024.02 1139.41 2021.96C1162.43 2030.38 1186.64 2036.22 1211.55 2039.31C1236.97 2042.4 1263.25 2042.4 1289.87 2038.97C1343.97 2032.1 1393.26 2012.34 1434.83 1982.97L1435.17 1983.83Z" fill="white" stroke="#D3D3D3" stroke-width="0.4997" stroke-miterlimit="10"/>
<path d="M991.702 2120.9C890.023 2168.3 871.646 2309.32 916.645 2405.68C971.091 2522.47 1105.58 2576.58 1224.43 2533.29C1147.48 2532.43 1073.97 2488.29 1039.28 2413.92C1024.51 2382.14 1018.5 2348.48 1020.21 2315.84C1022.62 2333.36 1027.77 2350.88 1035.67 2367.89C1078.61 2459.78 1187.85 2499.63 1279.73 2456.69C1353.93 2422.16 1394.12 2344.36 1384.5 2267.41C1381.24 2243.71 1374.37 2220.17 1363.72 2197.33C1306.18 2073.83 1159.33 2020.42 1036.01 2077.96C1032.75 2079.5 1029.66 2081.05 1026.4 2082.77C1059.72 2079.33 1093.04 2092.21 1115.19 2117.46C1076.72 2102 1032.24 2102 991.702 2120.9Z" stroke="#D3D3D3" stroke-width="0.4997" stroke-miterlimit="10"/>
<path d="M1305.33 189.623C1338.13 228.957 1385.53 246.476 1435.17 247.335V248.022C1385.36 247.163 1337.79 229.644 1304.81 190.139C1290.73 173.306 1280.76 154.241 1274.92 134.488C1268.91 114.392 1267.2 93.4376 1269.43 72.9982C1260.67 86.5672 1255.34 101.854 1253.46 117.484C1251.57 133.801 1253.63 150.462 1259.47 165.921L1258.78 166.264C1257.58 164.89 1256.38 163.688 1255.17 162.314C1253.97 160.939 1252.77 159.565 1251.74 158.191C1213.27 111.988 1194.37 55.8221 1194.37 0H1195.06C1195.06 55.6504 1213.78 111.644 1252.25 157.848C1253.46 159.222 1254.49 160.596 1255.69 161.97C1256.38 162.829 1257.23 163.688 1257.92 164.546C1252.42 149.432 1250.71 133.286 1252.6 117.484C1254.49 101.167 1260.15 85.3649 1269.6 71.2806L1270.29 71.6241C1267.71 92.5788 1269.43 113.877 1275.61 134.317C1281.45 153.897 1291.41 172.791 1305.33 189.623Z" fill="white" stroke="#D3D3D3" stroke-width="0.4997" stroke-miterlimit="10"/>
<path d="M399.321 2318.42C455.141 2259.85 470.771 2180.84 458.576 2103.03C446.382 2025.23 406.191 1948.96 350.543 1895.89C283.387 1831.82 197.853 1799.19 111.976 1797.47C70.4116 1796.61 28.6753 1802.97 -11 1816.54V1815.68C28.6753 1802.11 70.4116 1795.75 111.976 1796.61C198.025 1798.33 283.902 1831.14 351.058 1895.38C406.707 1948.45 446.897 2025.05 459.263 2102.86C471.63 2180.84 455.828 2260.19 399.836 2318.94C377.852 2341.95 352.26 2359.3 324.78 2370.81C296.784 2382.66 266.727 2388.67 236.67 2388.67C257.796 2399.32 280.811 2404.64 303.997 2404.64C327.7 2404.64 351.23 2399.15 372.871 2388.16L373.386 2388.67C371.669 2390.56 369.951 2392.45 368.234 2394.34C366.516 2396.23 364.799 2398.12 362.909 2400.01C294.895 2471.29 204.208 2508.39 113.007 2510.45C71.2703 2511.48 29.1905 2505.12 -10.8282 2491.38V2490.52C29.1905 2504.27 71.0986 2510.62 113.007 2509.59C204.208 2507.53 294.551 2470.6 362.394 2399.32C364.112 2397.43 366.001 2395.54 367.718 2393.65C369.092 2392.28 370.295 2390.73 371.497 2389.36C350.371 2399.84 327.184 2405.16 304.169 2405.16C280.467 2405.16 256.765 2399.49 235.124 2388.33L235.296 2387.64C265.696 2387.81 296.269 2381.8 324.608 2369.78C352.089 2358.61 377.508 2341.27 399.321 2318.42ZM-10.8282 1866.52C4.45789 1867.21 19.744 1869.1 34.8584 1872.19C88.274 1883.01 139.285 1908.6 181.708 1948.96C199.743 1966.14 215.2 1985.21 228.082 2005.47C241.307 2026.26 251.612 2048.41 259.17 2071.26L258.483 2071.6C252.128 2060.27 244.914 2049.44 236.842 2038.97C228.941 2028.66 220.01 2019.04 210.391 2009.77C157.319 1959.27 88.961 1934.88 21.1181 1936.43C10.4693 1936.6 -0.179476 1937.63 -10.6565 1939V1938.14C-0.179476 1936.6 10.4693 1935.74 21.1181 1935.57C89.1328 1934.02 157.835 1958.41 211.078 2009.08C220.697 2018.36 229.628 2028.15 237.529 2038.28C244.914 2047.73 251.441 2057.52 257.28 2067.48C249.895 2046.01 239.933 2025.23 227.395 2005.65C214.685 1985.55 199.227 1966.66 181.193 1949.31C138.942 1908.94 88.1023 1883.52 34.6867 1872.7C19.5723 1869.61 4.45789 1867.72 -10.8282 1867.03V1866.52Z" fill="white" stroke="#D3D3D3" stroke-width="0.4997" stroke-miterlimit="10"/>
</svg>
