<svg width="68" height="68" viewBox="0 0 68 68" fill="none" xmlns="http://www.w3.org/2000/svg">
<path fill-rule="evenodd" clip-rule="evenodd" d="M56.065 21.6378C52.3742 8.44341 39.5955 4.0147 28.5929 7.09236C14.3904 11.0651 4.90082 25.8237 7.45733 39.3988C8.9306 31.1222 14.9921 23.9987 23.6407 21.5794C27.33 20.5475 31.0614 20.4908 34.5581 21.2566C32.6183 21.2119 30.6395 21.4495 28.6746 21.9991C17.9949 24.9865 11.2978 35.8762 14.2804 46.5387C16.6846 55.1336 24.8045 61.0205 33.2806 61.3466C35.8921 61.4086 38.5562 61.09 41.2025 60.3498C55.5417 56.3388 63.9189 41.4831 59.9144 27.1671C59.8093 26.7914 59.6947 26.42 59.5739 26.0522C59.3492 29.6974 57.3626 33.0518 54.2414 34.9959C56.5817 31.123 57.3787 26.3342 56.065 21.6378Z" fill="#E8E8E8"/>
</svg>
